<svg xmlns="http://www.w3.org/2000/svg" viewBox="0 0 97.01 68.83"><defs><style>.a{fill:#fff;}</style></defs><path class="a" d="M74.06,28.83H54.57V25l9.2-9.8a22.45,22.45,0,0,0,2.8-3.62,5.75,5.75,0,0,0,.91-2.93,4.36,4.36,0,0,0-1-3,3.43,3.43,0,0,0-2.73-1.08,3.73,3.73,0,0,0-3,1.32,5.25,5.25,0,0,0-1.1,3.47H54a9.28,9.28,0,0,1,1.24-4.75,8.68,8.68,0,0,1,3.5-3.37A10.69,10.69,0,0,1,63.89,0a10.05,10.05,0,0,1,6.82,2.11,7.44,7.44,0,0,1,2.44,6,9.53,9.53,0,0,1-1.1,4.29,23.9,23.9,0,0,1-3.75,5.1l-6.46,6.82H74.06Z"/><path class="a" d="M97,28.83H77.52V25l9.2-9.8a22.45,22.45,0,0,0,2.8-3.62,5.75,5.75,0,0,0,.91-2.93,4.36,4.36,0,0,0-1-3,3.45,3.45,0,0,0-2.73-1.08,3.73,3.73,0,0,0-3,1.32,5.25,5.25,0,0,0-1.1,3.47H77a9.38,9.38,0,0,1,1.24-4.75A8.77,8.77,0,0,1,81.7,1.22,10.69,10.69,0,0,1,86.84,0a10.05,10.05,0,0,1,6.82,2.11,7.48,7.48,0,0,1,2.44,6A9.53,9.53,0,0,1,95,12.36a23.9,23.9,0,0,1-3.75,5.1l-6.46,6.82H97Z"/><polygon class="a" points="36.58 0.39 36.58 24.1 5.86 24.1 5.86 0.39 0 0.39 0 28.83 42.44 28.83 42.44 0.39 36.58 0.39"/><polygon class="a" points="0 68.83 5.86 68.83 5.86 45.12 36.58 45.12 36.58 68.83 42.44 68.83 42.44 40.39 0 40.39 0 68.83"/></svg>